<svg width="101" height="177" viewBox="0 0 101 177" fill="none" xmlns="http://www.w3.org/2000/svg">
<path d="M0 50.5C0 22.6096 22.6096 3.05176e-05 50.5 3.05176e-05C78.3904 3.05176e-05 101 22.6096 101 50.5C101 78.3904 78.3904 101 50.5 101C22.6096 101 0 78.3904 0 50.5Z" fill="#FF9E3D"/>
<path d="M50.5258 176.1L2.11082 64.9894H98.9409L50.5258 176.1Z" fill="#FF9E3D"/>
<path d="M68.7617 74.9896L74.1298 69.6221C74.8138 68.9381 74.9071 67.91 74.3244 67.3343C74.3244 67.3343 65.3311 59.1831 56.5683 51.2324L50.365 57.4345L66.4669 75.1981C67.042 75.7663 68.0782 75.6725 68.7617 74.9896Z" fill="white"/>
<path d="M24.2484 68.7944C23.6871 69.3557 23.6871 70.2546 24.2484 70.8095L28.5936 75.1547C28.867 75.4292 29.2411 75.5729 29.6008 75.5729C29.9605 75.5729 30.3347 75.4362 30.6081 75.1547L49.3998 56.363L55.4942 50.2686L61.7247 44.0381L55.365 37.6709L48.8177 44.2176L43.35 49.6853L24.2484 68.7944Z" fill="white"/>
<path d="M51.5304 31.7856C51.8681 32.1238 52.3216 32.2964 52.7682 32.2964C53.2147 32.2964 53.6607 32.1238 54.0059 31.7856L54.661 31.1311L56.7403 33.2104L56.0853 33.8649C55.6682 34.2825 55.5026 34.8652 55.6034 35.4044C55.6462 35.6564 55.747 35.9008 55.9051 36.1163C55.9555 36.1887 56.0198 36.2605 56.0853 36.3323L56.3946 36.6416L62.7618 43.0088L63.2657 43.5121L63.495 43.7421C63.5964 43.8429 63.6978 43.9222 63.8049 43.9865C64.0852 44.1666 64.409 44.2524 64.7334 44.2524C65.1799 44.2524 65.6248 44.0798 65.9711 43.7415L66.1872 43.5255C69.7701 48.3607 69.5396 51.7125 70.274 51.7125C70.6117 51.7125 71.166 50.9781 72.4177 49.3378C76.0499 44.5246 74.7131 39.7687 73.0148 36.6966L73.389 36.3225C74.0725 35.639 74.0725 34.531 73.389 33.8545L65.97 26.447C65.6317 26.1088 65.1788 25.9362 64.7316 25.9362C64.2857 25.9362 63.8402 26.1088 63.4939 26.447L62.8394 27.1015L60.7537 25.0372L61.4157 24.3752C62.0997 23.6917 62.0997 22.5837 61.4157 21.9072L61.085 21.5765C60.7479 21.2382 60.2943 21.0656 59.8484 21.0656C59.4024 21.0656 58.9558 21.2382 58.6106 21.5765L51.1997 28.9868C50.5156 29.6703 50.5156 30.7783 51.1997 31.4548L51.5304 31.7856Z" fill="white"/>
<path d="M42.5658 48.535L47.9044 43.1965C43.8754 39.5487 41.0547 36.9944 41.0547 36.9944C39.5945 35.5052 39.8465 33.3251 38.7164 31.6993C37.7312 30.282 36.0544 29.5551 34.6296 28.6845C32.3631 27.3031 30.0898 25.9217 27.8233 24.5403C27.5216 24.3532 27.1254 24.4036 26.8734 24.6556L24.0168 27.5116C23.7648 27.7636 23.715 28.1592 23.9021 28.4615C25.2331 30.6486 26.5641 32.8287 27.8876 35.0158C28.7078 36.3543 29.4995 38.3329 30.8375 39.2249C32.5282 40.3543 34.845 40.2176 36.3417 41.6714C36.3562 41.6859 36.3631 41.7004 36.3846 41.7149L42.5658 48.535Z" fill="white"/>
</svg>
